# xmcd
#
# Track frame offsets:
#	150
#	30907
#	52417
#	70775
#	89807
#	110477
#	134330
#	152447
#	170327
#	201055
#
# Disc length: 2936 seconds
#
# Revision: 0
# Processed by: cddbd v1.5PL3 Copyright (c) Steve Scherf et al.
# Submitted via: dBpowerAMP V4.0
#
DISCID=860b760a
DTITLE=Falguni Pathak - Meri Chunar Udd Udd Jaye
DYEAR=2000
DGENRE=Country
TTITLE0=Meri Chunar Udd Udd Jaye
TTITLE1=Aiyo Rama
TTITLE2=Gulabi Gaal
TTITLE3=Rim Jhim
TTITLE4=Julmi
TTITLE5=Jab Se Gaye Pardes
TTITLE6=Mare Ghagre
TTITLE7=Meri Laal Chunariya
TTITLE8=Meri Chunar Udd Udd Jaye
TTITLE9=Meri Payal Chhanki
EXTD=Universal Music India Ltd
EXTT0=
EXTT1=
EXTT2=
EXTT3=
EXTT4=
EXTT5=
EXTT6=
EXTT7=
EXTT8=
EXTT9=
PLAYORDER=
